<svg xmlns="http://www.w3.org/2000/svg" width="274" height="261" fill="none"><script xmlns=""/><g opacity=".38" clip-path="url(#clip0_641_13240)"><mask id="a" style="mask-type:luminance" maskUnits="userSpaceOnUse" x="6" y="2" width="262" height="262"><path d="M229.405 225.405c50.885-50.885 50.885-133.386 0-184.27-50.884-50.885-133.385-50.885-184.27 0-50.885 50.884-50.885 133.385 0 184.27 50.885 50.884 133.386 50.884 184.27 0z" fill="#fff"/></mask><g opacity=".59" fill="#FEFFFF" mask="url(#a)"><path d="M73.18 125.543c.6 2.6-.1 4.3-2.3 5-2.1.7-4 .1-4.8-2.1-.8-2.5-.1-4.4 2.7-5.1 2.3-.6 3.7.5 4.4 2.2zm14-6.001c2.3-.4 3.9.4 4.5 2.7.6 2.2-.1 4-2.4 4.7-2.6.8-4.5-.1-5-3-.5-2.4.6-3.8 2.9-4.4zm23.201-.4c.2 2.7-1.3 4.2-3.9 4.3-2.3.1-3.6-1.3-3.9-3.5-.3-2.7 1.3-4.2 3.8-4.3 2.3-.1 3.6 1.3 4 3.5zm15.1-7.4c2.2-.5 4 .1 4.7 2.2.9 2.4.1 4.4-2.5 5.2-2.1.6-4-.1-4.7-2.2-.9-2.3-.1-4.3 2.5-5.2zm23.299-.8c.4 2.3-.4 3.9-2.7 4.5-2.2.6-4-.1-4.7-2.4-.8-2.6.1-4.5 3-5 2.3-.4 3.8.7 4.4 2.9zm18.401-3.5c.4 2.3-.5 3.8-2.8 4.3-2.7.6-4.3-.7-4.6-3.3-.3-2.3 1-3.7 3.2-4 2.3-.4 3.7.7 4.2 3zm12.898-2.7c-.3-2.4.7-3.9 3-4.3 2.3-.4 3.8.7 4.2 3 .4 2.3-.7 3.8-3 4.2-2.4.4-3.8-.7-4.2-2.9zM27.28 118.143c-2.5.1-3.8-1.2-3.9-3.5-.1-2.4 1.4-3.6 3.7-3.7 1.9 0 3.2 1.1 3.4 3.1.3 2.4-.9 3.7-3.2 4.1zm17-10.701c2.3-.5 3.9.2 4.6 2.5.6 2.2-.2 3.8-2.5 4.5-2.2.6-3.8-.2-4.5-2.4-.6-2.4.3-3.9 2.4-4.6zm24.9-1.399c.4 2.3-.4 3.8-2.8 4.4-2.3.5-3.9-.4-4.4-2.7-.5-2.3.4-3.9 2.7-4.4 2.4-.6 3.8.4 4.5 2.7zm13.4-6.5c2.8-.6 4.3.3 4.9 2.5.6 2.2-.1 3.9-2.3 4.6-2.5.7-4.4-.1-4.9-2.9-.4-2.3.7-3.6 2.3-4.2zm20.399 3.6c-2.3.2-3.8-.8-4.2-3-.5-2.8 1-4.3 3.6-4.5 2.4-.2 3.6 1.3 3.9 3.5.2 2.3-1.1 3.6-3.3 4zM34.48 74.342c-.1-2.4 1.2-3.8 3.4-3.9 2.4-.1 3.6 1.4 3.7 3.6 0 1.9-1.1 3.2-3 3.4-2.4.3-3.7-.9-4.1-3.1zm24.8-1c-2.6.4-4.2-.4-4.6-2.8-.4-2.3.7-3.8 3-4.2 1.9-.3 3.3.6 3.9 2.4.6 2.4-.3 3.9-2.3 4.6zm20.8-8.299c.5 2.4-.2 4-2.4 4.6-2.2.6-3.8-.2-4.5-2.5-.6-2.2.2-3.8 2.5-4.5 2.1-.5 3.6.4 4.4 2.4zm18.4-3.7c.5 2.7-.4 4.2-2.6 4.7-2.3.5-3.8-.4-4.3-2.7-.5-2.3.4-3.8 2.7-4.3 2.2-.6 3.6.6 4.2 2.3zm15.799-6.4c2.8-.2 4.1.9 4.4 3.2.3 2.3-.9 3.7-3.2 4-2.3.3-3.7-.9-4-3.2-.2-2.4 1.1-3.6 2.8-4zm22.802-1.4c.3 2.9-.6 4.4-2.9 4.7-2.3.4-3.8-.7-4.1-3-.4-2.3.7-3.7 2.9-4.1 2.4-.3 3.6 1 4.1 2.4zm18.5-2.9c.2 2.4-1 3.8-3.4 4-2.4.2-3.7-1.3-3.8-3.6-.1-1.9 1-3.2 3-3.5 2.4-.3 3.8.8 4.2 3.1zm-32.5 48.5c-2.3.2-3.8-.8-4.2-3-.5-2.8 1-4.3 3.6-4.5 2.4-.2 3.6 1.3 3.9 3.5.2 2.3-1 3.6-3.3 4zm17.399-11.2c2.3-.3 3.8.7 4.2 2.9.5 2.8-.9 4.2-3.5 4.5-2.3.2-3.6-1.2-3.8-3.4-.3-2.2.8-3.5 3.1-4zm22.499-1.001c.5 2.3-.2 3.9-2.5 4.6-2.3.6-3.9-.2-4.6-2.5-.6-2.3.2-3.9 2.5-4.6 2.3-.6 3.9.2 4.6 2.5zm20.102-3.999c.5 2.2-.2 3.8-2.5 4.5-2.2.6-3.8-.2-4.5-2.5-.6-2.2.2-3.8 2.5-4.5 2.2-.6 3.8.3 4.5 2.5zm18.499-3.1c.1 2.4-1.2 3.8-3.4 3.9-2.4.1-3.6-1.4-3.7-3.6 0-1.9 1.1-3.2 3-3.4 2.4-.3 3.7.9 4.1 3.1zm-.5 17.099c2.4-.5 4 .4 4.5 2.7.5 2.301-.6 3.801-3 4.201-1.9.3-3.3-.5-3.9-2.4-.7-2.2.2-3.8 2.4-4.5zm26.7 17.701c.1 2.5-1 3.9-3.3 4-2.4.2-3.7-1.3-3.8-3.5-.1-1.9 1-3.2 2.9-3.5 2.4-.4 3.7.8 4.2 3zM17.081 160.342c-2.2.4-3.8-.5-4.2-2.8-.4-2.3.7-3.8 3-4.2 1.9-.3 3.3.6 3.8 2.4.6 2.3-.3 3.8-2.6 4.6zm21.198-7.8c.3 2.3-.7 3.8-3 4.2-2.3.4-3.8-.7-4.1-2.9-.4-2.3.7-3.8 2.9-4.1 2.3-.5 3.7.6 4.2 2.8zm18.401-4.4c.4 3-.6 4.5-3 4.9-2.3.4-3.8-.7-4.2-3-.4-2.3.7-3.8 3-4.2 2.5-.5 3.7.9 4.2 2.3zm20.3-3.399c.3 2.3-.6 3.9-2.9 4.4-2.8.6-4.3-.8-4.6-3.4-.3-2.3 1.1-3.7 3.3-4 2.4-.4 3.8.7 4.2 3zm18.5-4.001c.5 2.3-.3 4-2.5 4.6-2.5.8-4.4-.1-5.1-2.7-.6-2.2.3-3.9 2.5-4.6 2.5-.8 4.4.1 5.1 2.7zm13.7-6.7c2.3-.4 4.1.4 4.8 2.6.8 2.5-.1 4.5-2.8 5.2-2.3.6-4-.4-4.7-2.5-.9-2.5.1-4.4 2.7-5.3zm19.701-3.899c2.5-.6 4.4.1 5.2 2.3.9 2.5 0 4.5-2.6 5.4-2.2.7-4.1-.2-4.9-2.3-1-2.5.1-4.4 2.3-5.4zM26.68 95.243c.4 2.2-.5 3.8-2.8 4.3s-3.8-.6-4.2-2.9c-.3-1.9.5-3.3 2.4-3.9 2.3-.6 3.9.2 4.6 2.5zm18.501-4.001c.3 2.8-.6 4.4-3 4.7-2.4.3-3.8-1-4-3.3-.2-2 .8-3.2 2.7-3.7 2.4-.6 3.6.7 4.3 2.3zm17.499.701c-2.8.2-4.2-.9-4.5-3.2-.3-2.4.9-3.7 3.2-4 2.4-.3 3.7.9 4 3.2.4 2.4-.9 3.6-2.7 4zm18-3.601c-2.4.2-3.8-1-4.1-3.3-.3-2.4.9-3.8 3.3-4.1 2.4-.3 3.8.9 4.1 3.3.3 2.4-1 3.7-3.3 4.1zm19.1-3.8c-2.3.5-3.9-.2-4.6-2.5-.6-2.3.2-3.9 2.5-4.6 2.3-.6 3.9.2 4.6 2.5.6 2.3-.2 3.9-2.5 4.6zm19.5-3.899c-2.4.2-3.8-1-4.1-3.3-.3-2.4.9-3.8 3.3-4.1 2.4-.3 3.8.9 4.1 3.3.3 2.4-1 3.7-3.3 4.1zm16.8-10.9c2.7-.5 4.2.4 4.8 2.7.5 2.3-.4 3.8-2.7 4.4-2.3.5-3.8-.4-4.4-2.7-.6-2.4.6-3.8 2.3-4.4zm20.7 3.3c-2.2.5-3.8-.2-4.5-2.5-.6-2.2.2-3.8 2.5-4.5 2.2-.6 3.8.2 4.5 2.5.6 2.2-.3 3.7-2.5 4.5zm17.9-11.001c2.8-.3 4.4.6 4.7 3 .3 2.4-1 3.8-3.3 4-2 .2-3.2-.8-3.7-2.7-.6-2.4.7-3.6 2.3-4.3zm-27 64.501c2.2-.5 4 .1 4.7 2.2.9 2.4.1 4.4-2.5 5.2-2.1.6-4-.1-4.7-2.2-.9-2.4-.1-4.3 2.5-5.2zm15.8.899c-.4-2.3.4-3.8 2.6-4.5 2.2-.6 4 .1 4.6 2.4.7 2.5-.1 4.4-2.9 5-2.2.4-3.6-.7-4.3-2.9zm27.4-5.999c.5 2.3-.2 3.9-2.5 4.6-2.3.6-3.9-.2-4.6-2.5-.6-2.3.2-3.9 2.5-4.6 2.3-.6 3.9.3 4.6 2.5zm-96.401-79.8c.4 2.2-.5 3.8-2.8 4.2-2.3.4-3.8-.7-4.2-3-.3-1.9.6-3.3 2.4-3.8 2.3-.7 3.8.2 4.6 2.6zm20.101-4.401c.3 2.9-.7 4.4-3 4.7-2.4.3-3.7-1-4-3.3-.2-1.9.8-3.2 2.7-3.6 2.4-.7 3.6.6 4.3 2.2zm90.502 78.001c2.3-.3 3.8.7 4.2 3 .4 2.3-.7 3.8-3 4.1-2.3.4-3.7-.7-4.1-2.9-.3-2.3.8-3.7 2.9-4.2zm-193.202 19.7c2.3-.3 3.9.7 4.2 3 .3 2.3-1 3.7-3.2 4-1.9.2-3.2-.8-3.7-2.7-.6-2.3.5-3.7 2.7-4.3zm22.6-1.5c.5 2.7-.4 4.2-2.6 4.7-2.3.5-3.8-.4-4.3-2.7-.5-2.3.4-3.8 2.7-4.3 2.2-.5 3.5.6 4.2 2.3zm13.9-6.001c2.3-.5 3.9.2 4.6 2.5.6 2.3-.2 3.9-2.5 4.6-2.3.6-3.9-.2-4.6-2.5-.6-2.3.2-3.9 2.5-4.6zm-24.9 47.202c.3 2.3-.7 3.9-3 4.2-2.3.3-3.7-1-4-3.2-.2-1.9.8-3.2 2.7-3.7 2.2-.6 3.6.5 4.3 2.7zm18.4-4.102c.5 2.2-.2 3.8-2.5 4.5-2.2.6-3.8-.2-4.5-2.5-.6-2.2.2-3.8 2.4-4.5 2.3-.5 3.9.3 4.6 2.5zm11.3-1.999c-.3-2.4.7-3.9 3-4.3 2.3-.4 3.8.7 4.2 3 .4 2.3-.7 3.8-3 4.2-2.3.5-3.7-.6-4.2-2.9zm23.001-8.4c2.3-.4 3.9.5 4.4 2.8.6 2.8-.7 4.3-3.4 4.7-2.3.3-3.7-1-4-3.3-.3-2.3.8-3.7 3-4.2zm23.099-.9c.3 3.1-1.2 4.6-3.7 4.8-2.3.2-3.7-1.2-3.9-3.4-.3-2.7 1.2-4.2 3.7-4.4 2.3-.2 3.5 1.3 3.9 3zm13.499-6.7c2.3-.5 4.1.3 4.8 2.4.9 2.5-.1 4.5-2.7 5.3-2.2.7-4-.3-4.8-2.4-.8-2.5.2-4.3 2.7-5.3zm25.2-.801c.3 2.7-1 4.4-3.7 4.6-2.2.2-3.9-.9-4.2-3.3-.4-2.7 1-4.4 3.6-4.7 2.3-.2 3.8 1.1 4.3 3.4zm15.001.802c-2.7.3-4.2-1.1-4.4-3.7-.2-2.2 1-3.7 3.3-4 2.7-.4 4.2 1.1 4.5 3.6.2 2.3-1.1 3.7-3.4 4.1zm21.701-8.202c.3 2.3-.6 3.9-2.9 4.4-2.8.6-4.3-.8-4.6-3.4-.3-2.3 1.1-3.7 3.3-4 2.3-.4 3.7.7 4.2 3zm15.499-6.999c2.9-.2 4.2.9 4.5 3.2.3 2.4-.9 3.8-3.3 4.1-2.4.3-3.7-.9-4.1-3.3-.2-2.4 1.1-3.6 2.9-4zm18.5-3.6c2.2-.4 3.8.5 4.3 2.7.5 2.3-.4 3.8-2.7 4.3-2.3.5-3.8-.4-4.3-2.7-.5-2.2.5-3.6 2.7-4.3zm22.801-.5c.1 2.4-1.2 3.7-3.5 3.8-2.3.1-3.6-1.4-3.6-3.7 0-1.9 1.1-3.1 3-3.4 2.4-.2 3.7 1 4.1 3.3zm-204.001 61.3c.4 2.2-.5 3.8-2.8 4.3s-3.8-.6-4.2-2.9c-.3-1.9.5-3.3 2.4-3.9 2.2-.6 3.8.2 4.6 2.5zm14.601-6.401c2.3-.2 3.7.9 4 3.2.3 2.3-.9 3.7-3.2 4-2.3.3-3.7-.9-4-3.2-.3-2.4.9-3.6 3.2-4zm22.5-.5c.2 2.4-1 3.7-3.2 4-2.4.3-3.7-.9-4-3.2-.3-2.4.9-3.7 3.2-4 2.3-.3 3.6.9 4 3.2zm15.899-7.399c2.3-.3 3.8.701 4.2 2.901.5 2.8-.9 4.2-3.5 4.5-2.3.2-3.6-1.201-3.8-3.401-.3-2.2.8-3.5 3.1-4zm18.4-3.8c2.3-.2 3.9.7 4.3 3 .5 2.8-.9 4.4-3.6 4.6-2.4.2-3.7-1.2-4-3.5-.2-2.2 1-3.6 3.3-4.1zm22.901-.301c.2 2.7-1.3 4.2-3.9 4.3-2.3.1-3.6-1.3-3.9-3.5-.3-2.7 1.3-4.2 3.8-4.3 2.4-.1 3.7 1.3 4 3.5zm19.999-4.599c.5 2.3-.3 4-2.5 4.6-2.5.8-4.4-.1-5.1-2.7-.6-2.2.3-3.9 2.5-4.6 2.5-.7 4.4.2 5.1 2.7zm13.601-6.501c2.8-.3 4.4.7 4.8 3 .5 2.8-.9 4.4-3.6 4.6-2.4.2-3.7-1.2-4-3.5-.2-2.3 1.1-3.6 2.8-4.1zm20.1 3.802c-2.3.2-3.7-.7-4.1-3-.5-2.8 1-4.2 3.6-4.4 2.3-.2 3.6 1.3 3.8 3.5.1 2.2-1.1 3.5-3.3 3.9zm18.398-11.202c2.7-.5 4.2.4 4.8 2.7.5 2.3-.4 3.8-2.7 4.4-2.3.5-3.8-.4-4.4-2.7-.6-2.4.5-3.8 2.3-4.4zm23.202-.699c.2 2.4-1 3.8-3.4 4-2.4.2-3.7-1.3-3.8-3.6-.1-1.9 1-3.2 3-3.5 2.4-.3 3.7.8 4.2 3.1zM45.48 206.642c2.4-.3 3.9.7 4.2 3.1.3 2.4-1 3.8-3.3 4-2 .2-3.3-.8-3.7-2.7-.5-2.3.5-3.8 2.8-4.4zm20.1 3.3c-2.2.5-3.8-.2-4.5-2.5-.6-2.2.2-3.8 2.5-4.5 2.2-.6 3.8.2 4.5 2.5.6 2.2-.3 3.8-2.5 4.5zm20-3.899c-2.3.4-3.8-.4-4.4-2.8-.5-2.3.4-3.9 2.7-4.4 2.3-.5 3.9.4 4.4 2.7.6 2.4-.4 3.8-2.7 4.5zm19-3.8c-2.6.6-4.3-.1-4.9-2.3-.6-2.1-.1-4 2.1-4.7 2.4-.8 4.4-.1 5 2.7.6 2.3-.5 3.6-2.2 4.3zm16.2-10.9c2.3-.4 3.8.4 4.5 2.6.6 2.2-.1 4-2.4 4.6-2.5.7-4.4-.1-5-2.9-.4-2.3.7-3.7 2.9-4.3zm20.4-4.101c2.3-.2 3.8.7 4.3 3 .5 2.8-.9 4.3-3.5 4.6-2.4.2-3.6-1.2-3.9-3.4-.4-2.4.8-3.8 3.1-4.2zm19.5 3.801c-2.3.2-3.7-.7-4.1-3-.5-2.8 1-4.2 3.6-4.4 2.3-.2 3.6 1.3 3.8 3.5.2 2.2-1 3.5-3.3 3.9zm18.801-3.801c-2.9.3-4.2-.9-4.5-3.2-.3-2.4.9-3.8 3.3-4.1 2.4-.3 3.8.9 4.1 3.3.3 2.4-1.1 3.6-2.9 4zm20.099-4.2c-2.2.4-3.8-.5-4.3-2.7-.5-2.3.4-3.8 2.7-4.3 2.3-.5 3.8.4 4.3 2.7.5 2.3-.5 3.7-2.7 4.3zm21.1-8.4c.3 3-.8 4.4-3.1 4.7-2.4.3-3.7-1.1-3.9-3.4-.2-1.9.9-3.2 2.8-3.6 2.4-.5 3.6.9 4.2 2.3zM53.281 227.443c.3 2.9-.7 4.4-3 4.7-2.4.3-3.7-1-4-3.3-.2-1.9.8-3.2 2.7-3.6 2.4-.6 3.6.7 4.3 2.2zm18.499-3.601c.5 2.4-.4 4-2.7 4.5-2.3.5-3.8-.6-4.2-3-.3-1.9.5-3.3 2.4-3.9 2.2-.6 3.7.3 4.5 2.4zm20.2-3.599c.3 2.3-.7 3.8-3 4.2-2.3.4-3.8-.7-4.1-2.9-.4-2.3.7-3.8 2.9-4.1 2.3-.5 3.7.6 4.2 2.8zm18.399-4.1c.5 2.2-.2 3.9-2.5 4.5-2.2.6-3.9-.2-4.5-2.5-.6-2.2.2-3.9 2.5-4.5 2.2-.6 3.8.3 4.5 2.5zm18.601-3.101c.2 2.4-1 3.8-3.3 4.1-2.4.3-3.8-.9-4.1-3.3-.3-2.4.9-3.8 3.3-4.1 2.4-.2 3.7 1 4.1 3.3zm15.599-7.2c2.9-.3 4.2.9 4.5 3.2.3 2.4-.9 3.8-3.3 4.1-2.4.3-3.7-.9-4.1-3.3-.2-2.4 1.2-3.6 2.9-4zm20.201 3.501c-2.8.2-4.2-.9-4.5-3.2-.3-2.4.9-3.7 3.2-4 2.4-.3 3.7.9 4 3.2.4 2.4-1 3.6-2.7 4zm18.4-3.801c-2.2.4-3.8-.5-4.3-2.7-.5-2.3.4-3.8 2.7-4.3 2.3-.5 3.8.4 4.3 2.7.5 2.2-.5 3.7-2.7 4.3zm22.799-8.199c.3 2.5-.8 3.9-3.2 4.2-2.4.3-3.7-1.1-3.9-3.4-.2-1.9.9-3.2 2.8-3.6 2.4-.5 3.8.6 4.3 2.8zM75.48 242.844c.1 2.5-1 3.9-3.3 4-2.4.2-3.7-1.3-3.8-3.5-.1-1.9 1-3.2 2.9-3.5 2.4-.3 3.8.8 4.2 3zm15.8-7.101c2.9-.2 4.3 1.1 4.4 3.4.2 2.4-1.4 3.7-3.6 3.7-1.9.1-3.1-1.1-3.5-3-.4-2.4 1-3.5 2.7-4.1zm22.901-1c.2 2.8-.9 4.1-3.2 4.4-2.3.3-3.7-.9-4-3.2-.3-2.3.9-3.7 3.2-4 2.4-.2 3.5 1.2 4 2.8zm18.398-3.501c.3 2.3-.7 3.8-3 4.2-2.3.4-3.8-.7-4.1-2.9-.4-2.3.7-3.8 2.9-4.1 2.3-.4 3.7.6 4.2 2.8zm15.902-6.899c2.3-.3 3.8.7 4.2 3 .4 2.3-.7 3.8-3 4.1-2.3.4-3.7-.7-4.1-2.9-.4-2.4.7-3.7 2.9-4.2zm22.599-.9c.3 2.4-.7 3.9-3.1 4.2-2.4.3-3.8-1-4-3.3-.2-2 .8-3.3 2.7-3.7 2.4-.5 3.8.6 4.4 2.8zm18.501-3.4c.2 2.4-1 3.8-3.4 4-2.4.2-3.7-1.3-3.8-3.6-.1-1.9 1-3.2 3-3.5 2.4-.3 3.8.8 4.2 3.1zm-53.001 31.4c.2 2.4-.8 3.9-3.2 4.2-2.4.3-3.7-1.1-3.9-3.4-.2-1.9.9-3.2 2.8-3.6 2.3-.5 3.7.6 4.3 2.8zm20.2-3.801c.1 2.4-1.2 3.8-3.4 3.9-2.4.1-3.6-1.4-3.7-3.6 0-1.9 1.1-3.2 3-3.4 2.3-.3 3.6.9 4.1 3.1zM11.28 19.843c.2 1.9-.6 3.4-2.4 3.9-1.9.5-3.4-.5-3.9-2.3-.6-1.9.5-3.4 2.3-3.9 1.9-.6 3.2.6 4 2.3zm18.6-3.2c-.2 1.7-.9 3.3-2.8 3.5-2.2.2-3.8-1-3.8-3.3 0-1.7 1.2-3.2 3.1-3.2 1.8.1 3.2 1.1 3.5 3zm20.1-4.401c.2 1.9-.6 3.4-2.4 3.8-2.3.6-3.9-.6-4.1-2.9-.2-1.8.9-3.3 2.8-3.5 1.8-.2 3.1.8 3.7 2.6zm15.8.3c-1.9.1-3.4-.6-3.8-2.5-.5-2.3.7-3.9 3-4.1 1.8-.1 3.3 1 3.5 2.9.1 1.9-.9 3.1-2.7 3.7zm21.1-7.5c0 1.9-.8 3.3-2.7 3.7-1.9.3-3.4-.6-3.8-2.4-.5-2.3.7-3.9 3-4.1 1.8-.2 3.1.9 3.5 2.8zm19.9-4.999c.6 2.3-.2 3.9-1.9 4.5-2.2.8-3.9-.1-4.4-2.5-.4-1.9.6-3.3 2.4-3.8 2-.6 3.1.7 3.9 1.8zm-95.699 35.8c1.9-.3 3.4.5 3.9 2.3.6 2.2-.5 3.9-2.7 4.2-1.8.3-3.3-.8-3.6-2.7-.4-1.8.6-3.1 2.4-3.8zm18.399-3.699c1.9-.3 3.4.5 3.9 2.3.6 2.2-.4 3.9-2.8 4.2-1.9.3-3.3-.8-3.6-2.7-.3-1.9.7-3.1 2.5-3.8zm24.2-1.502c.3 1.9-.5 3.4-2.3 3.9-2.3.6-3.9-.4-4.3-2.8-.3-1.9.8-3.3 2.7-3.6 2-.4 3.2.6 3.9 2.5zm18.4-4.199c.4 2.4-.3 4.1-2.6 4.5-1.9.4-3.3-.5-3.8-2.3-.6-2.2.3-3.8 2.6-4.3 1.9-.4 3 .7 3.8 2.1zm16.4.8c-2.4.4-4.1-.3-4.5-2.6-.4-1.9.5-3.3 2.3-3.8 2.2-.6 3.8.3 4.3 2.6.4 1.8-.6 3-2.1 3.8zm22.3-8.001c.2 2-.5 3.4-2.3 3.9-2.2.6-3.8-.3-4.3-2.6-.4-1.9.5-3.3 2.3-3.8 2.2-.7 3.6.3 4.3 2.5zm18.4-3.799c.3 1.9-.5 3.4-2.3 3.9-2.3.6-3.9-.4-4.3-2.8-.3-1.9.8-3.3 2.7-3.6 1.9-.4 3.2.6 3.9 2.5zm18.5-3.601c.2 1.9-.5 3.4-2.4 3.9-2.3.6-3.9-.6-4.2-2.9-.2-1.9.9-3.3 2.8-3.6 1.9-.3 3.2.7 3.8 2.6zm16-6.599c1.9-.3 3.4.5 3.9 2.3.6 2.2-.4 3.9-2.8 4.2-1.9.3-3.3-.8-3.6-2.7-.3-1.9.7-3.2 2.5-3.8zm18.501-3.701c1.9-.3 3.4.5 3.9 2.3.6 2.2-.5 3.9-2.7 4.2-1.8.3-3.3-.8-3.6-2.7-.4-1.9.6-3.1 2.4-3.8zm22.399-1.2c.3 1.9-.6 3.3-2.3 3.9-1.8.6-3.4-.3-4-1.9-.8-2.1.2-3.8 2.5-4.3 1.8-.6 3.1.5 3.8 2.3zM18.78 56.443c.5 1.9-.2 3.5-2 4.2-2.2.8-4-.1-4.5-2.5-.4-1.9.6-3.3 2.4-3.8 2-.6 3.2.4 4.1 2.1zm14.401-5.9c2.1-.3 3.7.5 4.1 2.8.3 1.9-.6 3.3-2.4 3.7-2.2.6-3.8-.4-4.2-2.7-.4-1.9.6-3.1 2.5-3.8zm21.399 2.7c-1.9.2-3.3-.6-3.8-2.5-.5-2.3.4-3.9 2.7-4.3 2.4-.4 3.8 1 3.9 3.2.2 1.9-.8 3.2-2.8 3.6zm18.9-3.801c-2.4.1-3.8-.7-4.2-2.6-.5-2.3.6-3.9 2.9-4.2 2.4-.3 3.7 1.1 3.8 3.4.1 2-1.2 3-2.5 3.4zm59.4-15.999c.4 2.5-.3 4.1-2.7 4.6-1.9.4-3.3-.5-3.8-2.3-.6-2.2.3-3.8 2.6-4.3 1.9-.5 3.1.5 3.9 2zm18.499-3.201c.3 2.2-.6 3.7-3 4.1-1.9.3-3.3-.7-3.7-2.5-.5-2.3.6-3.8 2.9-4.2 1.9-.3 3.2.6 3.8 2.6zm17.601 0c-2.3.1-3.7-.7-4.1-2.5-.5-2.3.601-3.8 2.901-4.1 2.3-.3 3.699 1.1 3.799 3.3 0 1.8-1.2 2.9-2.6 3.3zm20.801-8.4c.5 2.3-.3 3.9-2 4.4-2.2.7-3.9-.2-4.4-2.6-.3-1.9.7-3.3 2.5-3.7 2-.4 3.1.8 3.9 1.9zm18.598-3c-.2 2.1-.9 3.7-2.8 3.9-2.3.2-3.8-1-3.8-3.3 0-1.8 1.2-3.2 3.2-3.2 1.8 0 2.9 1.2 3.4 2.6zm16.301-6.6c1.9.1 3.4.8 3.6 2.8.2 1.8-.8 3.4-2.7 3.6-1.8.2-3.4-.8-3.6-2.7-.2-1.9.9-3.2 2.7-3.7zm18.5-3.699c1.8.2 3.4.8 3.6 2.8.2 1.8-.8 3.4-2.7 3.5-1.8.2-3.4-.8-3.6-2.7-.2-1.8.8-3.1 2.7-3.6zm22-1.601c0 2.3-.7 3.8-2.6 4.2-1.5.3-2.9-.7-3.4-1.9-.8-1.8.3-3.4 2-4.1 1.9-.8 2.9.9 4 1.8zm-242.3 69.9c.3 2.1-.5 3.7-2.8 4.1-1.9.3-3.3-.6-3.7-2.4-.6-2.2.4-3.8 2.7-4.2 1.8-.3 3.1.6 3.8 2.5zm152.7-30.198c.1 2-.8 3.3-2.7 3.7-2.3.5-3.8-.7-4.1-3-.3-1.9.8-3.2 2.6-3.6 2.4-.5 3.7.7 4.2 2.9zm14.299-6.601c2-.2 3.4.5 3.9 2.3.6 2.2-.3 3.8-2.6 4.3-1.9.4-3.3-.5-3.8-2.3-.6-2.2.4-3.7 2.5-4.3zm18.802-3.701c2 0 3.4.8 3.7 2.7.4 1.9-.6 3.4-2.4 3.8-2.4.6-3.9-.7-4.1-3-.3-1.9.8-3.2 2.8-3.5zm23.8-1.299c.1 1.9-.6 3.4-2.5 3.8-2.3.5-3.9-.7-4-3-.1-1.8 1-3.2 2.9-3.4 1.8-.3 3.1.7 3.6 2.6zm15.999 0c-1.9.2-3.4-.6-3.9-2.4-.5-1.9.5-3.4 2.3-3.9 1.9-.6 3.4.5 3.9 2.3.6 1.9-.6 3.2-2.3 4zm18.4-3.699c-1.9.2-3.3-.6-3.8-2.3-.5-1.8.5-3.3 2.2-3.8 1.8-.6 3.3.5 3.8 2.2.6 1.8-.6 3-2.2 3.9zM5.28 103.243c-2.3.1-3.8-1-3.9-3.3-.1-1.8.9-3.2 2.9-3.4 2.3-.3 3.7 1 3.9 3.2.1 1.8-.9 3.1-2.9 3.5zm192.4-42.199c.3 2-.5 3.4-2.3 4-2.2.6-3.9-.3-4.3-2.6-.4-1.9.5-3.3 2.3-3.8 2.2-.7 3.7.3 4.3 2.4zm15.701.399c-2.2.2-3.7-.7-4-3-.2-1.9.8-3.2 2.6-3.6 2.3-.5 3.8.7 4.1 3 .3 1.8-.7 3-2.7 3.6zm20.699-4.1c-2.4.2-3.9-.6-4.3-2.5-.5-2.3.7-3.9 3-4.1 1.8-.1 3.2 1 3.5 2.9.2 2-1.2 3-2.2 3.7zm17-10.3c1.7.2 3.3.9 3.5 2.8.2 2.2-1 3.8-3.3 3.8-1.7 0-3.2-1.2-3.2-3.1.1-1.8 1-3.2 3-3.5zm22.001-.901c-.2 1.8-.8 3.4-2.8 3.6-1.8.2-3.4-.8-3.5-2.7-.2-1.8.8-3.4 2.7-3.6 1.7-.1 3.1.9 3.6 2.7zM9.08 121.643c-1.9.2-3.3-.6-3.8-2.5-.5-2.3.4-3.9 2.7-4.3 2.4-.4 3.8 1.001 3.9 3.201.2 2-.9 3.199-2.8 3.599zm207.001-48.501c2-.1 3.3.8 3.7 2.7.5 2.3-.7 3.8-3 4.1-1.9.3-3.2-.8-3.6-2.6-.5-2.4.7-3.7 2.9-4.2zm23.898-1.198c.1 2-.7 3.4-2.7 3.8-2.4.4-3.9-.9-4-3.2-.1-1.8 1.1-3.3 3.1-3.4 1.9-.1 3.2.9 3.6 2.8zm13.901-6.401c2.4-.2 3.9.5 4.3 2.3.6 2.3-.6 3.9-2.9 4.1-1.8.2-3.2-.9-3.5-2.8-.3-1.8 1.1-2.8 2.1-3.6zm-30 30.601c.2 1.9-.6 3.3-2.5 3.8-2.3.5-3.9-.4-4.3-2.7-.4-2.4 1-3.8 3.2-3.9 2-.2 3.3.9 3.6 2.8zm20.099-4.002c.1 2-.7 3.4-2.7 3.8-2.4.4-3.9-.9-4-3.2-.1-1.8 1.1-3.3 3.1-3.4 1.9-.2 3.2.9 3.6 2.8zm14.001-6.4c2.4-.2 3.9.5 4.3 2.3.6 2.3-.6 3.9-2.9 4.1-1.8.2-3.2-.9-3.5-2.8-.3-1.9 1-2.9 2.1-3.6zm-10.201 24.901c.1 1.9-.7 3.3-2.6 3.7-2.3.5-3.8-.6-4.1-2.9-.3-2.3 1.1-3.7 3.3-3.8 1.8 0 3 1.1 3.4 3zm14.401-6.6c2.1.2 3.7.9 3.9 2.8.2 2.3-1 3.8-3.3 3.8-1.8 0-3.2-1.2-3.2-3.2-.1-1.8 1.1-2.9 2.6-3.4zm-14.801 22.2c2.1-.3 3.7.6 4 2.9.3 1.9-.7 3.2-2.5 3.7-2.3.5-3.8-.6-4.1-2.8-.3-2 .7-3.2 2.6-3.8zm18.402-3.701c1.9-.3 3.4.5 3.9 2.3.6 2.2-.5 3.9-2.7 4.2-1.8.3-3.3-.8-3.6-2.7-.4-1.8.6-3.1 2.4-3.8zM8.879 198.243c.1 2.3-.7 3.7-2.5 4.1-2.3.5-3.8-.6-4.1-2.9-.3-2.3 1.1-3.7 3.3-3.8 1.8 0 2.9 1.3 3.3 2.6zm222.702-48.001c2-.1 3.3.8 3.7 2.7.5 2.3-.7 3.8-3 4.1-1.9.3-3.2-.8-3.6-2.6-.5-2.4.7-3.7 2.9-4.2zm19.798-3.899c1.9-.2 3.4.5 3.9 2.4.6 2.3-.6 3.9-2.9 4.2-1.9.2-3.3-.9-3.6-2.8-.2-1.9.7-3.2 2.6-3.8zm18.402-3.6c1.9-.3 3.4.5 3.9 2.3.6 2.2-.5 3.9-2.7 4.2-1.8.3-3.3-.8-3.6-2.7-.4-1.9.6-3.1 2.4-3.8zm-257.302 73.6c.3 2.5-.5 3.9-2.4 4.4-2.3.6-3.9-.6-4.2-2.9-.2-1.9.9-3.3 2.8-3.6 2.1-.3 3.1 1 3.8 2.1zm16.101.9c-2.4.1-3.8-.7-4.2-2.6-.5-2.3.6-3.9 2.9-4.2 2.4-.3 3.7 1.1 3.8 3.4.1 1.9-1.2 3-2.5 3.4zm207.6-41.701c-1.9.2-3.3-.6-3.8-2.5-.5-2.3.4-3.9 2.7-4.3 2.4-.4 3.8 1 3.9 3.2.2 2-.9 3.2-2.8 3.6zm20.2-4.1c-2 .1-3.4-.7-3.8-2.7-.4-2.4.9-3.9 3.2-4 1.8-.1 3.3 1.1 3.4 3.1.1 1.9-1 3.2-2.8 3.6zm-240.2 63.8c.3 1.9-.5 3.4-2.3 3.9-2.2.6-3.9-.4-4.2-2.8-.3-1.9.8-3.3 2.7-3.6 1.9-.3 3.2.7 3.8 2.5zm18.5-3.799c.4 2.1-.4 3.8-2.7 4.2-1.9.4-3.3-.5-3.8-2.3-.6-2.2.3-3.8 2.6-4.3 1.9-.4 3.2.5 3.9 2.4zM5.08 3.743c-2.3-.3-3.9-.9-4.1-2.8-.1-1.8.8-3.3 2.7-3.5 1.8-.2 3.3.8 3.5 2.7.3 1.9-1.2 2.7-2.1 3.6zm216.401 193.899c-1.9.2-3.3-.6-3.8-2.5-.5-2.3.4-3.9 2.7-4.3 2.4-.4 3.8 1 3.9 3.2.2 2-.9 3.3-2.8 3.6zm18.499-3.699c-2.2.2-3.7-.7-4-3-.2-1.9.8-3.2 2.6-3.6 2.3-.5 3.8.7 4.1 3 .3 1.8-.8 3-2.7 3.6zm22.8-8.101c.2 1.9-.6 3.4-2.4 3.8-2.3.6-3.9-.6-4.2-2.9-.2-1.8.9-3.3 2.8-3.5 2-.2 3.2.8 3.8 2.6zm-245.6 71.9c-1.9 0-3.4-.7-3.7-2.6-.4-2.3.9-3.9 3.1-3.9 1.7-.1 3.2 1.1 3.3 3 .1 1.8-.9 3.1-2.7 3.5zm18.5-3.599c-2 .1-3.4-.7-3.8-2.7-.4-2.4.9-3.9 3.2-4 1.8-.1 3.3 1.1 3.4 3.1.1 1.9-1 3.2-2.8 3.6zm17.5-10.5c2 0 3.3.8 3.7 2.7.4 2.3-.7 3.8-3 4.1-1.9.2-3.2-.8-3.6-2.6-.5-2.3.7-3.7 2.9-4.2zm152.3-30.501c2-.3 3.4.5 4 2.3.6 2.2-.3 3.9-2.6 4.3-1.9.4-3.3-.5-3.8-2.3-.8-2.2.2-3.7 2.4-4.3zm19.7 3.001c-2.3.1-3.8-1-3.9-3.3-.1-1.8.9-3.2 2.9-3.4 2.3-.3 3.7 1 3.9 3.2 0 1.8-1 3.1-2.9 3.5zm16.599-10.3c2.4-.4 3.9.4 4.4 2.2.6 2.2-.4 3.9-2.8 4.2-1.9.3-3.2-.8-3.6-2.7-.3-1.9.9-2.9 2-3.7zm24.501-2.301c.6 2.3-.2 3.9-1.9 4.5-2.1.8-3.9-.2-4.4-2.4-.4-1.8.6-3.2 2.4-3.8 1.9-.6 3 .7 3.9 1.7zm-187 58.801c.4 2.5-.4 4.1-2.8 4.5-1.9.3-3.3-.6-3.7-2.4-.6-2.2.4-3.8 2.7-4.2 1.9-.4 3.1.7 3.8 2.1zm16.2-6.201c2-.3 3.4.5 4 2.3.6 2.2-.3 3.9-2.6 4.3-1.9.4-3.3-.5-3.8-2.3-.8-2.2.2-3.7 2.4-4.3zm22.5-1.299c.4 2.2-.4 3.8-2.7 4.3-1.9.4-3.3-.5-3.8-2.3-.6-2.2.3-3.9 2.6-4.3 1.8-.5 3.1.4 3.9 2.3zm54.1-7.1c-1.9.1-3.3-.7-3.7-2.6-.5-2.3.601-3.9 2.901-4.2 2.4-.3 3.699 1.1 3.799 3.4.1 1.8-1.1 3.1-3 3.4zm17.3-10.5c2.2-.3 3.7.6 4.1 3 .3 1.9-.7 3.3-2.5 3.7-2.3.5-3.8-.6-4.2-2.9-.4-1.9.6-3.2 2.6-3.8zm20.101-4c2.1-.3 3.7.6 4 2.9.3 1.9-.7 3.2-2.5 3.7-2.3.5-3.8-.6-4.1-2.8-.3-1.9.7-3.2 2.6-3.8zm17.898-3.501c2.4-.4 3.9.4 4.4 2.2.6 2.2-.4 3.9-2.8 4.2-1.9.3-3.2-.8-3.6-2.7-.4-1.9.9-3 2-3.7zm19.001-3.8c1.9-.3 3.4.5 3.9 2.3.6 2.2-.5 3.9-2.7 4.2-1.8.3-3.3-.8-3.6-2.7-.4-1.9.6-3.1 2.4-3.8zm24.1-1.299c-.1 1.9-.8 3.4-2.8 3.6-1.8.2-3.4-.8-3.6-2.7-.2-1.8.8-3.4 2.7-3.6 1.9-.2 3.2.8 3.7 2.7zm-91.8 37.599c.1 2-.7 3.4-2.7 3.8-2.4.4-3.9-.9-4-3.2-.1-1.8 1.1-3.3 3.1-3.4 1.9-.1 3.2.9 3.6 2.8zm16.2 0c-1.9.5-3.5-.2-4.2-2-.8-2.2.1-4 2.5-4.5 1.9-.4 3.3.6 3.8 2.4.6 2-.4 3.3-2.1 4.1zm20.2-3.899c-2.4.2-3.9-.6-4.3-2.5-.5-2.3.7-3.9 3-4.1 1.8-.1 3.2 1 3.5 2.9.2 2-1.2 3-2.2 3.7zm17.801-3.7c-1.9 0-3.4-.7-3.7-2.6-.4-2.3.9-3.9 3.1-3.9 1.7-.1 3.2 1.1 3.3 3 .1 1.7-.8 3-2.7 3.5zm19.198-3.901c-2.4.3-3.9-.5-4.4-2.3-.5-1.9.5-3.4 2.3-3.9 1.9-.6 3.3.5 3.9 2.3.7 1.9-.8 3-1.8 3.9zm22.001-8c.2 1.9-.6 3.3-2.3 3.9-1.8.5-3.3-.5-3.9-2.2-.6-1.8.5-3.3 2.2-3.9 1.9-.6 3.2.6 4 2.2z"/></g></g><defs><clipPath id="clip0_641_13240"><path fill="#fff" d="M0 0h274v261H0z"/></clipPath></defs><script xmlns=""/></svg>