<svg xmlns="http://www.w3.org/2000/svg" width="14" height="14" fill="none">
  <path d="M8.17 8.578a2.103 2.103 0 01-2.34 0L.093 4.754A2.087 2.087 0 010 4.688v6.267c0 .718.583 1.288 1.289 1.288H12.71c.719 0 1.289-.583 1.289-1.288V4.687c-.03.023-.062.045-.093.067L8.17 8.578z" fill="#fbb321"></path>
  <path d="M.548 4.07l5.737 3.826a1.287 1.287 0 001.43 0l5.737-3.825A1.23 1.23 0 0014 3.046a1.29 1.29 0 00-1.288-1.288H1.288A1.29 1.29 0 000 3.047c0 .412.205.795.548 1.024z" fill="#fbb321"></path>
</svg>