<svg xmlns="http://www.w3.org/2000/svg" width="40" height="40" fill="none" viewBox="0 0 40 40">
  <path d="M18.08 21.036H16.1c-.32 0-.42-.12-.42-.42v-2.42c0-.32.12-.42.42-.42h1.98v-1.76c0-.8.14-1.56.54-2.26.42-.72 1.02-1.2 1.78-1.48.5-.18 1-.26 1.54-.26h1.96c.28 0 .4.12.4.4v2.28c0 .28-.12.4-.4.4-.54 0-1.08 0-1.62.02-.54 0-.82.26-.82.82-.02.6 0 1.18 0 1.8h2.32c.32 0 .44.12.44.44v2.42c0 .32-.1.42-.44.42h-2.32v6.52c0 .34-.1.46-.46.46h-2.5c-.3 0-.42-.12-.42-.42v-6.54z" fill="currentColor"></path>
  <rect x=".5" y=".5" width="39" height="39" rx="7.5" stroke="currentColor"></rect>
</svg>