<svg xmlns="http://www.w3.org/2000/svg" width="24" height="24" fill="none">
  <g clip-path="url(#clip0_636_8857)">
    <path d="M19.963 21.555v2.031a.414.414 0 01-.414.414H4.446a.414.414 0 01-.414-.414v-2.03a3.86 3.86 0 012.264-3.514c-.545-.434-1.375-1.016-1.98-2.27a5.469 5.469 0 01.375-5.408 5.32 5.32 0 00.893-2.95V5.172A5.172 5.172 0 0110.756 0h2.483a5.172 5.172 0 015.173 5.172c0 2.374-.058 2.839.228 3.782.403 1.335.937 1.5 1.348 2.858a5.472 5.472 0 01-1.83 5.865l-.458.365a3.859 3.859 0 012.263 3.513z" fill="#FFDFBA"></path>
    <path d="M19.966 21.557v2.03a.414.414 0 01-.414.414H4.45a.414.414 0 01-.414-.414v-2.03A3.857 3.857 0 017.892 17.7c.317 0 .618-.07.889-.192l.013.028 2.953 2.286c.15.116.358.116.507 0l2.954-2.286.012-.028c.271.123.572.192.89.192a3.857 3.857 0 013.856 3.857z" fill="#FFAA64"></path>
    <path d="M16.729 7.569c.22.012.391.193.391.413v2.476a5.121 5.121 0 01-3.163 4.733C10.6 16.585 6.88 14.11 6.88 10.458v-2.44c0-.243.208-.435.45-.413a10.706 10.706 0 006.978-1.784.412.412 0 01.628.23c.256.942.952 1.47 1.794 1.518z" fill="#FFEBD2"></path>
    <path d="M18.158 17.677l-.459.365a3.848 3.848 0 00-1.593-.344 2.14 2.14 0 01-2.143-2.138v-.353l-.008-.02a5.121 5.121 0 003.163-4.732V7.978c0-.22-.172-.4-.391-.413-.837-.048-1.537-.57-1.794-1.517a.412.412 0 00-.628-.23 10.706 10.706 0 01-6.979 1.784.413.413 0 00-.45.412v2.441a5.121 5.121 0 003.164 4.733l-.008.019v.353a2.14 2.14 0 01-2.143 2.138c-.568 0-1.108.124-1.594.344l-.458-.365a5.472 5.472 0 01-1.146-7.313 5.32 5.32 0 00.893-2.95V5.172A5.172 5.172 0 0110.756 0h2.483a5.172 5.172 0 015.172 5.172v2.242c0 1.048.31 2.076.893 2.95a5.472 5.472 0 01-1.146 7.313z" fill="#42434D"></path>
    <path d="M14.024 16.056a5.134 5.134 0 01-4.047 0c.07-.291.058-.48.058-.85l.008-.018a5.131 5.131 0 003.915 0l.008.019c0 .37-.012.558.059.849z" fill="#FFD6A6"></path>
    <path d="M15.576.557c.528.268.298 1.074-.291 1.018a5.231 5.231 0 00-.494-.023h-2.483a5.172 5.172 0 00-5.172 5.172v.63c0 .371-.26.36-.26.66 0 2.732.012 2.56-.028 2.677-.406 1.194-.893 1.367-1.289 2.673a5.468 5.468 0 00-.204 2.155c.061.58-.747.858-1.038.254a5.47 5.47 0 01.374-5.409 5.32 5.32 0 00.893-2.95V5.172A5.172 5.172 0 0110.756 0h2.483c.84 0 1.635.2 2.337.557z" fill="#4D4E59"></path>
    <path d="M11.018 13.887c.773.517.184 1.713-.694 1.405-1.928-.676-3.445-2.476-3.445-4.836v-2.44c0-.243.208-.434.45-.413.198.018.415.032.65.04a.788.788 0 01.762.789v1.197c0 1.801.918 3.348 2.277 4.258z" fill="#FFF3E4"></path>
    <path d="M9.647 18.196c.245.19.116.589-.195.59a3.856 3.856 0 00-3.865 3.857v1.358H4.449a.414.414 0 01-.414-.414v-2.03A3.857 3.857 0 017.892 17.7c.317 0 .618-.07.889-.192l.013.028.853.66z" fill="#FFBD7B"></path>
    <path d="M14.355 18.196c-.246.19-.116.589.195.59a3.856 3.856 0 013.865 3.857v1.358h1.138a.414.414 0 00.414-.414v-2.03A3.857 3.857 0 0016.11 17.7a2.14 2.14 0 01-.89-.192l-.012.028-.853.66z" fill="#FAA157"></path>
  </g>
  <defs>
    <clipPath id="clip0_636_8857">
      <path fill="#fff" d="M0 0h24v24H0z"></path>
    </clipPath>
  </defs>
</svg>