<svg width="22" height="22" fill="none" xmlns="http://www.w3.org/2000/svg"><path d="M1.807 1.808c-1.42 1.41-1.42 6 0 7.38a5.58 5.58 0 003.69 1.06 5.58 5.58 0 003.69-1.06c1.42-1.41 1.42-6 0-7.38s-5.97-1.42-7.38 0zm0 11c-1.42 1.41-1.42 6 0 7.38a5.58 5.58 0 003.69 1.06 5.58 5.58 0 003.69-1.06c1.42-1.41 1.42-6 0-7.38s-5.97-1.42-7.38 0zm14.691-2.56a5.58 5.58 0 003.69-1.06c1.42-1.41 1.42-6 0-7.38s-6-1.42-7.38 0-1.42 6 0 7.38a5.58 5.58 0 003.69 1.06zm-3.691 2.56c-1.42 1.41-1.42 6 0 7.38a5.58 5.58 0 003.69 1.06 5.58 5.58 0 003.69-1.06c1.42-1.41 1.42-6 0-7.38s-5.97-1.42-7.38 0z" fill="#fff"/></svg>