<svg width="16" height="16" fill="none" xmlns="http://www.w3.org/2000/svg"><g clip-path="url(#clip0_601_12773)"><g clip-path="url(#clip1_601_12773)"><path d="M17.144 15.732l-3.243-3.243a7.37 7.37 0 001.523-4.494 7.38 7.38 0 00-2.177-5.254A7.381 7.381 0 007.993.564a7.38 7.38 0 00-5.254 2.177c-2.897 2.897-2.897 7.61 0 10.508a7.38 7.38 0 005.254 2.176 7.37 7.37 0 004.494-1.522l3.243 3.243a.997.997 0 001.414 0 1 1 0 000-1.414zm-12.99-3.897a5.437 5.437 0 010-7.68 5.396 5.396 0 013.839-1.59c1.45 0 2.814.564 3.84 1.59a5.395 5.395 0 011.59 3.84c0 1.45-.565 2.814-1.59 3.84a5.395 5.395 0 01-3.84 1.59 5.395 5.395 0 01-3.84-1.59z" fill="#F36F3F"/></g></g><defs><clipPath id="clip0_601_12773"><path fill="#fff" d="M0 0h16v16H0z"/></clipPath><clipPath id="clip1_601_12773"><path fill="#fff" transform="rotate(45 7.794 8.5)" d="M0 0h18v16H0z"/></clipPath></defs></svg>