<svg width="20" height="20" fill="none" xmlns="http://www.w3.org/2000/svg" viewbox="0 0 20 20"><path fill-rule="evenodd" clip-rule="evenodd" d="M9.625 6.193c0-2.864 3.037-3.246 3.743-5.88 3.207.348.755 6.778 4.161 3.529.447.571.596 1.815.596 2.35a4.25 4.25 0 01-8.5 0zm-1.35 5.532a16.368 16.368 0 01-2.271-2.834 1.088 1.088 0 01.006-1.196l.925-1.428c.197-.305.235-.652.107-.992l-1.59-4.24A1.105 1.105 0 003.815.488l-2.22 1.418a2.733 2.733 0 00-1.204 2.98c.859 3.6 2.732 6.838 5.321 9.4 2.562 2.59 5.8 4.462 9.4 5.321a2.733 2.733 0 002.98-1.204l1.418-2.22a1.105 1.105 0 00-.545-1.635l-4.24-1.591a1.078 1.078 0 00-.993.107l-1.428.925c-.372.24-.822.243-1.196.006a16.37 16.37 0 01-2.834-2.27z" fill="currentColor"/></svg>