<svg xmlns="http://www.w3.org/2000/svg" width="24" height="24" fill="none">
  <g clip-path="url(#clip0_636_8869)">
    <path d="M23.891 16.334a1.991 1.991 0 01.036-2.251.402.402 0 00-.046-.517L10.434.12a.402.402 0 00-.517-.046 1.99 1.99 0 01-2.25.036.4.4 0 00-.505.054l-6.999 7a.4.4 0 00-.054.503 1.99 1.99 0 01-.036 2.251.402.402 0 00.046.517L13.566 23.88c.139.138.357.16.517.046a1.991 1.991 0 012.251-.036.4.4 0 00.504-.054l6.999-7a.4.4 0 00.054-.503z" fill="#FC502A"></path>
    <path d="M9.917.073a1.99 1.99 0 01-2.251.036.4.4 0 00-.504.054l-1.85 1.85a.4.4 0 01.504-.055 1.993 1.993 0 002.251-.035.402.402 0 01.517.045L22.03 15.416a.4.4 0 01.046.516 1.991 1.991 0 00-.036 2.251c.105.159.08.37-.054.504l1.85-1.85a.401.401 0 00.054-.503 1.991 1.991 0 01.035-2.251.402.402 0 00-.045-.517L10.433.12a.402.402 0 00-.516-.046z" fill="#E60D28"></path>
    <path d="M11.998 17.753a5.755 5.755 0 100-11.51 5.755 5.755 0 000 11.51z" fill="#fff"></path>
    <path d="M7.931 7.928a5.77 5.77 0 00-.826 1.04 5.757 5.757 0 017.924 7.924 5.755 5.755 0 10-7.098-8.965z" fill="#E6E6E6"></path>
    <path d="M20.862 16.315a.37.37 0 01-.261-.63l.278-.28a.37.37 0 01.523.523l-.279.278a.369.369 0 01-.261.109zm-3.61 3.61a.37.37 0 01-.261-.63l.498-.499a.37.37 0 11.523.523l-.498.498a.369.369 0 01-.262.108zm1.806-1.805a.368.368 0 01-.262-.63l.498-.499a.37.37 0 11.523.523l-.498.498a.368.368 0 01-.261.108zm-3.392 3.39a.369.369 0 01-.26-.63l.278-.28a.37.37 0 11.522.523l-.278.279a.368.368 0 01-.262.108zm-7.609-18a.369.369 0 01-.261-.63l.279-.28a.37.37 0 01.522.523l-.279.279a.369.369 0 01-.26.108zM4.448 7.12a.368.368 0 01-.262-.63l.498-.498a.37.37 0 11.523.522l-.498.498a.368.368 0 01-.261.108zm1.805-1.805a.369.369 0 01-.262-.63l.498-.499a.37.37 0 01.523.523l-.498.498a.369.369 0 01-.261.108zm-3.391 3.39a.369.369 0 01-.262-.63l.28-.28a.37.37 0 01.522.523l-.279.28a.368.368 0 01-.261.107z" fill="#fff"></path>
    <path d="M8.83 12.754a.357.357 0 00.016.495c.093.092.223.135.332.092l5.9-1.989a.3.3 0 00.119-.076c.147-.146.098-.39-.027-.516a.3.3 0 00-.31-.081l-5.916 2.004a.363.363 0 00-.114.071zm3.108.21l-.788.788c-.516.516-.364 1.037.076 1.477.434.435.956.587 1.472.07l.788-.787c.51-.51.364-1.037-.07-1.472-.44-.44-.968-.587-1.479-.076zm1.086 1.086l-.788.788c-.2.201-.413.174-.603-.016s-.212-.397-.01-.598l.787-.787c.201-.201.408-.18.598.01s.217.402.016.603zm-1.741-5.336l-.788.788c-.51.51-.364 1.037.076 1.477.435.435.962.582 1.472.07l.788-.787c.51-.51.364-1.037-.07-1.472-.44-.44-.967-.587-1.478-.076zm1.07.483c.19.19.217.402.016.603l-.787.788c-.201.201-.413.174-.603-.016s-.212-.397-.011-.598l.787-.787c.201-.201.408-.18.598.01z" fill="#E60D28"></path>
  </g>
  <defs>
    <clipPath id="clip0_636_8869">
      <path fill="#fff" d="M0 0h24v24H0z"></path>
    </clipPath>
  </defs>
</svg>