<svg xmlns="http://www.w3.org/2000/svg" width="14" height="14" fill="none">
  <g clip-path="url(#clip0_614_9250)">
    <path d="M12.877 9.19a7.948 7.948 0 01-2.497-.398c-.39-.134-.87-.011-1.11.234l-1.573 1.188c-1.826-.974-2.95-2.099-3.912-3.91L4.94 4.77c.3-.299.407-.736.278-1.146a7.96 7.96 0 01-.4-2.5C4.818.503 4.315 0 3.695 0h-2.57C.503 0 0 .504 0 1.123 0 8.223 5.776 14 12.877 14c.62 0 1.123-.504 1.123-1.123v-2.564c0-.62-.504-1.124-1.123-1.124z" fill="#fbb321"></path>
  </g>
  <defs>
    <clipPath id="clip0_614_9250">
      <path fill="#fff" d="M0 0h14v14H0z"></path>
    </clipPath>
  </defs>
</svg>
