<svg xmlns="http://www.w3.org/2000/svg" width="44" height="67" fill="none"><script xmlns=""/><path d="M20.07 1.719l19.263 13.035L27.978 28.01l10.402 1.293-25.71 36.194 8.21-26.027-19.2 3.313L20.07 1.72z" fill="#FFEE9C"/><path d="M35.95 15.238l-17.5 21.603-4.947-8.871 15.633 1.98 6.793.849-3.407 4.79-17.7 24.857L25.75 31.97l3.386 5.638-15.633 1.98-9.651 1.213 4.704-10.084 11.72-25.2 15.673 9.72z" fill="url(#paint0_radial_410_33325)"/><path d="M22.161 6.71L4.906 40.643l-.588-.809 19.303-1.98.548-.06-.203.484-8.78 21.684 8.172-21.906.344.424L4.46 40.965l-1.034.121.446-.93L20.154 5.722l2.007.99z" fill="url(#paint1_radial_410_33325)"/><path d="M19.909 6.326l14.64 9.397-12.126 14.591 11.74 1.192-18.675 28.151" stroke="url(#paint2_linear_410_33325)" stroke-width="5.042" stroke-miterlimit="10"/><defs><radialGradient id="paint0_radial_410_33325" cx="0" cy="0" r="1" gradientUnits="userSpaceOnUse" gradientTransform="matrix(26.9381 0 0 26.8483 20.715 35.154)"><stop stop-color="#FE9900"/><stop offset="1" stop-color="#FECD2A"/></radialGradient><radialGradient id="paint1_radial_410_33325" cx="0" cy="0" r="1" gradientUnits="userSpaceOnUse" gradientTransform="matrix(21.0012 0 0 20.9312 13.934 33.047)"><stop stop-color="#fff"/><stop offset="1" stop-color="#FECD2A"/></radialGradient><linearGradient id="paint2_linear_410_33325" x1="14.559" y1="32.837" x2="36.215" y2="32.837" gradientUnits="userSpaceOnUse"><stop stop-color="#fff" stop-opacity="0"/><stop offset="1" stop-color="#FECD2A"/></linearGradient></defs><script xmlns=""/></svg>