<svg width="1728" height="40" fill="none" xmlns="http://www.w3.org/2000/svg" viewBox="0 0 1728 40"><g clip-path="url(#clip0_635_14071)"><path fill-rule="evenodd" clip-rule="evenodd" d="M1727.8 16.435v-92.103H-.203v92.103c15.8.2 24 6.173 31.9 11.849 8.3 5.974 16.8 12.048 33.6 12.048h.5c16.5-.1 24.9-6.173 33-12.048 8.1-5.875 16.5-11.849 32.9-11.849h.5c16.1.1 24.4 6.074 32.4 11.849 8.3 5.974 16.8 12.048 33.6 12.048h.5c16.4-.1 24.9-6.173 33-12.048 8.1-5.875 16.5-11.849 33-11.849h.5c16.1.1 24.4 6.074 32.4 11.849 8.2 5.974 16.7 12.048 33.5 12.048h.5c16.5-.1 24.9-6.173 33-12.048 8.2-5.875 16.5-11.849 33-11.849h.5c16.1.1 24.4 6.074 32.4 11.849 8.3 5.974 16.8 12.048 33.6 12.048h.5c16.5-.1 24.9-6.173 33-12.048 8.1-5.875 16.5-11.849 32.9-11.849h.5c16.1.1 24.4 6.074 32.4 11.849 8.3 5.974 16.8 12.048 33.6 12.048h.5c16.5-.1 24.9-6.173 33-12.048 8.1-5.875 16.5-11.849 33-11.849h.5c16.1.1 24.4 6.074 32.4 11.849 8.2 5.974 16.7 12.048 33.5 12.048h.5c16.4-.1 24.9-6.173 33-12.048 8.1-5.875 16.5-11.849 33-11.849h.5c16.1.1 24.4 6.074 32.4 11.849 8.2 5.974 16.7 12.048 33.5 12.048h.5c16.4-.1 24.9-6.173 33-12.048 8.2-5.875 16.5-11.849 33-11.849h.5c16.1.1 24.4 6.074 32.4 11.849 8.3 5.974 16.8 12.048 33.5 12.048h.5c16.503-.1 24.903-6.173 33.003-12.048 8.1-5.875 16.5-11.849 32.9-11.849h.5c16.1.1 24.4 6.074 32.4 11.849 8.2 5.875 16.7 12.048 33.5 12.048h.5c16.5-.1 24.9-6.173 33-12.048 8.1-5.875 16.5-11.849 32.9-11.849h.5c16.1.1 24.4 6.074 32.4 11.849 8.5 5.974 17 12.048 33.8 12.048h.5c16.4-.1 24.9-6.173 33-12.048 8.1-5.875 16.5-11.849 32.9-11.849h.5c16.1.1 24.4 6.074 32.4 11.849 8.2 5.875 16.8 12.048 33.5 12.048h.5c16.5-.1 24.9-6.173 33-12.048 8.1-5.875 16.5-11.849 32.9-11.849h.5c16.1.1 24.4 6.074 32.4 11.849 8.2 5.875 16.8 12.048 33.5 12.048h.5c16.5-.1 24.9-6.173 33-12.048 8.1-5.875 16.5-11.849 32.9-11.849h.5c16.1.1 24.4 6.074 32.4 11.849 8.2 5.875 16.8 12.048 33.5 12.048h1c16.8 0 25.3-6.074 33.5-12.048 8.5-5.875 16.9-11.849 33.3-11.849z" fill="#F36F3F"></path></g><defs><clipPath id="clip0_635_14071"><path fill="#fff" d="M0 0h1728v40H0z"></path></clipPath></defs></svg>